<?xml version="1.0" encoding="UTF-8"?>
<svg id="Layer_1" xmlns="http://www.w3.org/2000/svg" viewBox="0 0 45 85">
  <defs>
    <style>
      .cls-1 {
        fill: #e67408;
      }
    </style>
  </defs>
  <path class="cls-1" d="M1.68,67.43V1h21.57c4.25,0,7.92.82,11.01,2.46,3.09,1.64,5.49,3.93,7.19,6.87,1.7,2.94,2.55,6.45,2.55,10.51s-.85,7.48-2.55,10.42c-1.7,2.94-4.11,5.23-7.23,6.87-3.13,1.64-6.78,2.46-10.97,2.46h-12.56v26.85H1.68ZM10.69,32.58h12.56c3.52,0,6.31-1.08,8.37-3.23,2.06-2.15,3.09-4.99,3.09-8.51s-1.03-6.45-3.09-8.6c-2.06-2.15-4.85-3.23-8.37-3.23h-12.56v23.57Z"/>
  <rect class="cls-1" x="1" y="76" width="41" height="8"/>
</svg>